<?xml version="1.0" encoding="utf-8"?>
<!-- Generator: Adobe Illustrator 18.1.1, SVG Export Plug-In . SVG Version: 6.00 Build 0)  -->
<!DOCTYPE svg PUBLIC "-//W3C//DTD SVG 1.1//EN" "http://www.w3.org/Graphics/SVG/1.1/DTD/svg11.dtd">
<svg version="1.1" id="Layer_1" xmlns="http://www.w3.org/2000/svg" xmlns:xlink="http://www.w3.org/1999/xlink" x="0px" y="0px"
	 viewBox="0 0 336.8 389.9" enable-background="new 0 0 336.8 389.9" xml:space="preserve">
<path fill="#000" d="M72.6,27.9c0,0,20.1-7.7,26.7-6.7c6.5,1,22,0.9,27.1,3.3c5.1,2.4,1.9-5,7.9-3.4c6.1,1.6,12.2,5.8,14,6.8
	c1.9,1,22,6.2,24.8,11.3c2.8,5.1,2.8,49.3,0,57.6c-2.8,8.2-7,10.8-11.2,2.1c-4.2-8.7-8-25.7-8-20c0,5.7-3.3,25.2-5.1,28.8
	c-1.9,3.6-4.7,10.8-3.3,12.3c1.4,1.5,12.2,3.6,15.9,4.1c3.7,0.5,27.1,7.2,32.7,5.1c5.6-2.1,35.1-19.5,39.3-23.1
	c4.2-3.6,37.9-14.4,46.3-13.9c8.4,0.5,32.3-0.5,36.9,4.1c4.7,4.6,5.6,8.7-3.3,10.8c-8.9,2.1-37.4,2.6-41.6,6.2
	c-4.2,3.6-28.1,13.9-31.3,19c-3.3,5.1-17.3,10.3-15.4,14.4c1.9,4.1,6.1,14.4,7.9,19.5c1.9,5.1,10.8,33.9,10.3,36.5
	c-0.5,2.6,7.5,16.4,9.4,22.6c1.9,6.2,7.5,32.9,7,37.5c-0.5,4.6,2.8,4.6,2.8,8.2c0,3.6,4.2,19.5,2.8,23.6c-1.4,4.1-2.3,27.2-1.4,30.8
	c0.9,3.6,3.7,27.8-0.5,26.7c-4.2-1-25.7,3.6-28.1-3.6c-2.3-7.2,2.3-19.5,3.7-21.6c1.4-2.1,4.2-23.1,1.4-30.8
	c-2.8-7.7-3.7-26.7-3.7-26.7s-16.8-21.6-20.1-25.2c-3.3-3.6-3.7-11.8-7-8.2c-3.3,3.6-15.4,7.7-17.3,10.3c-1.9,2.6-6.1,9.3-5.6,13.9
	c0.5,4.6-5.1,46.3-5.1,50.4c0,4.1-4.2,23.6-1.4,29.3c2.8,5.7,4.2,21.6,2.8,25.7c-1.4,4.1-14.5,7.2-20.1,6.7
	c-5.6-0.5-25.7,0-23.4-9.3c2.3-9.3,10.3-25.7,6.1-26.2c-4.2-0.5-25.2-0.5-24.3-7.2c0.9-6.7,8.4-14.9,11.7-17.5
	c3.3-2.6,18.7-22.6,14-34.4c-4.7-11.8-1.4-18.5-7.9-16.4c-6.5,2.1-18.2,0.5-23.8,0c-5.6-0.5-23.4-22.6-24.3-17
	c-0.9,5.7-3.7,28.3-3.3,34.4c0.5,6.2-4.2,24.7-2.3,31.9c1.9,7.2,1.4,30.3-0.5,36.5c-1.9,6.2-5.1,18-9.8,18.5
	c-4.7,0.5-46.8,5.7-42.1-4.1c4.7-9.8,17.3-21.6,21.5-25.2c4.2-3.6,4.2-6.7,3.3-13.4c-0.9-6.7,2.8-29.8-0.5-39.1
	c-3.3-9.3-5.6-36-4.2-42.2c1.4-6.2,4.7-15.4,0.5-25.7c-4.2-10.3,0.9-46.3,3.7-56c2.8-9.8,8.9-20,7-27.2c0,0-8.4-16.4-10.2-23
	c-1.8-6.6,0.4-22.4-3.2-18.1c-3.5,4.2-3.2,8.1-9.1,3.9C35.7,91.2,22.8,75,20,62.3c-2.8-12.7-4.2-16.2,3.5-21.2
	c7.7-5,31.9-15.8,31.9-17c0-1.2,4.2-5,7.4-3.3C65.9,22.6,72.6,27.9,72.6,27.9z"/>
</svg>
