<?xml version="1.0" encoding="utf-8"?>
<!-- Generator: Adobe Illustrator 17.0.0, SVG Export Plug-In . SVG Version: 6.00 Build 0)  -->
<!DOCTYPE svg PUBLIC "-//W3C//DTD SVG 1.1//EN" "http://www.w3.org/Graphics/SVG/1.1/DTD/svg11.dtd">
<svg version="1.1" id="Layer_1" xmlns="http://www.w3.org/2000/svg" xmlns:xlink="http://www.w3.org/1999/xlink" x="0px" y="0px"
	 width="2120px" height="1800px" viewBox="0 0 2120 1800" enable-background="new 0 0 2120 1800" xml:space="preserve">
<g>
	<g>
		<path fill-rule="evenodd" clip-rule="evenodd" stroke="#fff" stroke-width="0.216" stroke-miterlimit="22.9256" d="
			M519.198,319.768c0.982-1.661,0.16-2.266,0.913-6.988c1.83-11.474,4.439-13.505,0.994-28.02
			c-4.249-17.897-6.806-29.577-16.686-41.953l-14.852-22.933c-4.015-8.609-3.396-3.473-7.545-10.494l-13.756-25.082
			c-4.153-9.228-6.859-21.102-9.431-31.066c-3.168-12.268-3.89-16.437-3.869-18.888c-8.804-3.593-14.201-7.08-16.531-8.748l0,0
			c-0.58-0.54-0.192-0.309-0.567-0.474l-0.779-0.547c-12.122-9.656-19.326-11.757-36.123-9.596
			c-10.272,1.322-28.68,14.293-35.665,25.887l-16.588,19.801c-13.284,12.676-22.841,32.115-35.178,45.88
			c-5.816,6.488-3.013,0.346-12.43,12.514c-6.221,8.037-7.286,5.944-13.194,11.82c-5.21,5.183-8.051,8.446-14.476,12.126
			c-6.983,3.995-0.927,0.084-6.453,4.999l-23.596,14.024c-7.036,4.372-10.727,3.437-18.228,6.084
			c-4.036,1.424-10.46,8.537-18.717,3.323c3.517-3.731,4.88-2.036,9.788-6.595c9.091-8.445,5.122-3.22,10.506-7.737
			c8.067-6.769,26.214-23.469,28.272-34.934c-9.082,0.108-8.781,1.21-15.244,4.876c-5.244,2.976-8.86,2.822-14.273,5.011
			c-11.384,4.604-16.335,6.839-31.858,7.469c-38.76,1.574-28.035-1.316-42.28-6.983c-14.207-5.655-13.747-7.508-21.498-12.489
			c-2.667-1.714-3.809-1.547-6.367-2.965l-22.499-14.7c-10.939-6.119-14.652-9.847-25.436-13.063
			c-4.618-1.377-7.634-3.509-13.339-5.139c-14.309-4.09-20.27-0.51-32.087-0.556c-17.956,0.937-19.274,15.942-26.032,20.041
			c0.31-10.308-0.056-10.04,4.014-16.944c2.804-4.754,4.407-9.039,7.416-12.921c7.595-9.79,21.603-21.049,33.334-24.831
			c9.055-2.918,3.278-4.071,11.005-6.711c6.964-2.379,8.989,0.159,15.276-3.955c12.358-8.09,34.14-6.942,48.54-6.407
			c24.879,0.921,16.652,4.25,28.608,6.368c21.207,3.758,15.933,5.841,28.439,6.725c12.183,0.862,23.733,1.577,32.418-4.567
			c-4.238-12.054-16.375-6.095-27.666-20.153c-2.513-3.13-1.61,0.602-3.379-4.964c11.108,1.737,7.619,2.937,13.685,6.238
			c6.81,3.705,45.154,1.049,50.443-1.125c2.661-1.096,3.411-2.15,5.869-3.609c0.339-0.202,0.719-0.455,1.072-0.646
			c6.344-3.42,16.599-6.469,25.147-13.794c0.256-0.219,0.595-0.579,0.856-0.797l3.859-2.815c9.715-6.224,8.021-5.511,9.099-10.85
			c1.775-2.1,4.624-5.487,8.952-5.852c8.559-0.799,4.183-0.513,10.687-5.503c3.531-2.709,5.575-4.488,8.456-6.458
			c11.593-7.926,7.991-6.651,18.152-10.197c7.217-2.52,4.461-3.25,8.816-5.593c9.708-5.223,7.231,2.456,20.876-6.526
			c4.732-3.115,6.115-2.828,11.845-3.121c17.667-0.907,14.289-0.615,23.509,4.173c3.836,1.993,6.331,1.209,10.921,2.808
			c4.806,1.673,3.091,2.041,7.633,5.009c10.217,6.674,20.899,17.421,25.092,29.678l9.886-0.158c0.932,0.237,1.909,0.288,2.872,0.142
			l6.789-0.009c4.751-15.375,16.218-37.015,29.788-46.979c7.439-5.464-1.25-1.362,12.521-10.844
			c3.886-2.678,3.404-2.933,6.028-4.896c11.244-8.411,44.023-15.111,57.24-17.176c8.195-1.281,12.561-0.61,18.819-0.491
			c18.156,0.351,7.143,0.33,16.784,1.785c3.529,0.534,6.141-0.247,9.764,0.494c15.345,3.138,34.15,14.552,50.45,18.932
			c20.044,5.39,16.442,6.698,34.515,2.377c-1.507,2.803-0.261,0.99-2.473,3.565l-4.78,3.777c3.79,19.899,23.241-5.587,34.785,39.032
			c6.891,26.627,2.063,18.023,2.456,31.188c0.524,17.507-2.305,14.254-0.738,27.533c-8.977-3.96-12.191-11.534-14.841-19.56
			c-19.574-2.476-6.215,7.826-15.738,29.443c-8.735,19.831,8.077,34.523,10.398,37.931c3.136,4.601,6.948,17.859,4.058,21.444
			c-5.183,3.709-12.583,3.271-16.153,8.495c-4.652,6.803,2.53,12.343,4.322,14.799c-3.392,3.623-2.335,4.126-4.647,7.01
			c-1.509,1.882-4.716,3.959-5.919,5.439c-4.765,5.861,2.695,5.107-5.119,15.439c-2.5,3.306,3.12-3.818-1.414,1.761
			c-7.22,8.887-2.26,2.904-3.347,13.635c-0.028,0.292-3.434,13.634-3.829,14.878c-11.773,4.923-10.972,3.33-19.857,1.774
			c-7.623-1.334-9.635,1.823-19.448-0.763c-8.669-2.285-19.467-0.632-19.262,12.018c0.242,15.131-2.798,6.162-2.047,18.17
			l-1.173,9.599c-1.559,4.933,1.404,23.617,7.435,29.266c6.692,6.269,10.672,11.084,21.014,14.477
			c3.113,1.022,4.934,2.589,7.03,3.071c-1.364,0.466-2.347,0.144-3.605,0.974l-10.867,7.174c-1.887,1.246-3.469,2.819-4.702,4.604
			l-30.074,8.058c-0.461-0.218-0.931-0.417-1.41-0.595c-3.352-2.777-7.71-4.257-12.214-3.947c-0.607-0.31-1.225-0.58-1.851-0.812
			c-1.503-1.245-3.209-2.23-5.04-2.91c-0.751-0.623-1.555-1.181-2.399-1.669l-15.133-8.736c-2.758-1.592-5.773-2.338-8.745-2.318
			c-3.796-6.677-11.743-10.227-19.507-8.146l-2.862-0.569c-3.305-2.602-7.523-3.976-11.879-3.675
			c-1.489-0.759-3.088-1.305-4.75-1.608c-0.987-1.16-2.117-2.179-3.357-3.034l-4.562-17.027c-0.343-1.281-0.829-2.507-1.444-3.658
			c0.37-0.338,0.703-0.713,0.992-1.116c0.741-0.693,1.26-1.496,1.729-2.382c0.187-0.297,0.387-0.642,0.551-0.952
			c0.332-0.526,0.595-1.095,0.781-1.69c1.127-0.634,2.043-1.552,2.677-2.634C516.724,325.14,518.98,321.374,519.198,319.768
			L519.198,319.768z M3.78,409.617l0.991-0.991v0.001c-0.16,0.162-0.312,0.331-0.456,0.508C4.129,409.287,3.95,409.447,3.78,409.617
			z"/>
		
			<path fill-rule="evenodd" clip-rule="evenodd" fill="#fff" stroke="#fff" stroke-width="0.5669" stroke-miterlimit="22.9256" d="
			M438.143,125.305c4.063-12.228,6.2-25.148,8.837-38.663c5.015-2.424,11.531-2.432,19.547-0.025
			c2.82,20.278-1.064,36.291-11.651,48.04C442.868,129.818,438.143,125.305,438.143,125.305z"/>
	</g>
	
		<path fill-rule="evenodd" clip-rule="evenodd" fill="none" stroke="#fff" stroke-width="15.9999" stroke-miterlimit="22.9256" d="
		M1010.127,908.161c127.409,295.718,379.141,296.816,789.226,289.867"/>
	<path fill-rule="evenodd" clip-rule="evenodd" stroke="#fff" stroke-width="0.5669" stroke-miterlimit="22.9256" d="
		M717.867,750.484c-96.104-138.691-151.651-221.985-166.641-249.882c61.405-29.773,92.107-44.659,92.107-44.659
		c19.967,78.186,43.679,136.504,71.135,174.952c7.048,16.303,19.897,35.513,38.549,57.633
		c31.01,25.84,89.975,64.852,176.894,117.038c62.008,21.9,85.878,30.116,71.61,24.648c19.649,9.37,32.055,29.021,37.217,58.952
		c-12.333,19.157-26.679,30.79-43.038,34.899c-17.722-4.229-29.42-14.152-35.096-29.77c-7.12-8.237-14.355-17.467-21.706-27.69
		c-4.714-6.289-14.3-12.893-28.755-19.811c-87.252-41.795-142.719-69.067-166.402-81.818
		C739.635,763.708,731.011,758.877,717.867,750.484z"/>
	<path fill-rule="evenodd" clip-rule="evenodd" fill="#fff" d="M1783.816,1196.667l10.882-0.793
		c5.166,26.584,35.547,67.175,48.727,84.199c12.956,16.733,17.573,24.367,31.126,37.744c13.933,13.743,21.736,21.099,32.299,35.675
		c-15.295,27.641-13.885,38.91-23.051,70.66c-8.522,29.533-28.062,28.76-46.835,56.531c18.983,21.709,81.297,76.145,80.09,118.024
		c-0.814,28.448-16.36,54.659-27.845,77.344c-14.183,28.021-16.685,50.598-51.54,45.608
		c-16.922-53.832,52.822-48.191,34.008-108.315c-4.631-14.78-68.077-64.171-85.575-74.205
		c-13.641,52.958-25.797,62.612-34.238,132.004c-12.414,102.166,35.981,51.344,42.557,112.159
		c-32.516,4.57-47.879,10.882-71.303-4.8c1.2-32.421-12.767-77.277-11.661-128.146c3.722-171.151-11.661-103.169-151.218-161.828
		c-62.646-26.333-134.797-60.653-150.614-16.095c-2.346,6.597-3.139,16.055-5.167,23.275c-9.329,33.14-68.443,72.897-96.301,93.413
		c-57.832,42.578-44.32,126.268-38.218,138.635c12.048,24.455,7.37,3.064,41.099,21.587l4.441,22.285
		c-21.668,6.651-52.876,7.526-80.857,3.071c-9.885-26.272-8.109-54.524-14.543-83.616c-9.559-43.269-0.359-49.879-0.752-91.087
		c-30.327,1.478-49.73,31.94-65.31,52.931c-15.451,20.814-29.574,53.75-31.404,89.385c24.197,18.733,42.815,11.221,30.536,41.994
		c-18.651,7.858-57.263,8.366-80.775,0.759c-24.536-46.584,23.675-127.76,41.262-166.71c33.113-73.365,16.773,21.14,87.657-138.078
		c-51.764,17.227-90.287,56.598-158.581,44.74c-24.38-4.231-35.682-10.889-41.601-29.533c17.926-27.479,57.988-25.167,91.65-41.689
		c24.143-11.851,53.574-43.398,68.531-63.358c156.669-209.111,415.32-129.773,506.686-152.913l0.936-0.23
		c24.658-0.705,48.015-6.604,69.032-16.631c14.421-4.861,26.543-11.024,32.408-19.363l-1.017,0.007
		C1774.968,1196.939,1778.772,1201.685,1783.816,1196.667z"/>
	<path fill-rule="evenodd" clip-rule="evenodd" fill="#fff" d="M1794.698,1195.874c8.807-28.665,107.115-124.37,118.885-149.415
		c9.193-19.553,17.6-46.225,29.472-62.022l25.16,73.521c43.072,8.454,52.747,14.366,69.27,50.727
		c11.356,24.984,5.064,17.811,35.411,27.953c16.814,5.621,30.082,12.597,43.411,19.079c-8.333,76.022-99.576,57.093-103.732,58.727
		c-31.452,26.984-64.666,90.518-97.582,126.593C1868.266,1319.132,1813.871,1214.187,1794.698,1195.874z"/>
	
		<path fill-rule="evenodd" clip-rule="evenodd" fill="#fff" stroke="#fff" stroke-width="0.5669" stroke-miterlimit="22.9256" d="
		M1769.334,1201.305c10.483-1.452,16.487-3.15,26.582-12.681c43.431,69.447,80.676,123.867,119.077,152.413
		c-13.517,16.561-7.408,6.515-10.807,17.427C1863.146,1298.154,1813.482,1251.223,1769.334,1201.305z"/>
	<path fill-rule="evenodd" clip-rule="evenodd" stroke="#fff" stroke-width="0.216" stroke-miterlimit="22.9256" d="
		M719.506,791.309c-10.774,6.055-21.379,10.88-31.819,14.505h-64.087c-3.159,0-6.039-1.191-8.218-3.148
		c-2.098-0.412-4.005-1.358-5.573-2.689h-3.719c-3.032,0-5.809-1.098-7.954-2.918h-15.393c-3.159,0-6.04-1.192-8.219-3.149
		c-2.097-0.412-4.004-1.357-5.571-2.687h-0.262c-10.03-6.539-19.87-14.461-29.521-23.766c-1.597,4.064-2.976,7.401-4.138,10.01
		c-12.981,28.398-40.02,59.635-45.386,100.47c-4.422,33.644,6.451,82.151,25.784,102.873c30.844,33.055,17.556,14.319,14.958,105.61
		c-0.984,34.615-0.677,139.849-6.968,166.436c-5.559,23.483-15.873,42.805-40.336,47.634c-54.989,10.859-53.87,20.828-88.722,41.132
		c-16.669,9.711-26.761,23.678-45.397,40.366c-10.086,9.031-11.616,15.031-20.611,23.286l-47.021,40.981
		c-16.024,12.709-29.847,26.135-46.517,39.125c-5.666,4.415-12.688,7.138-20.379,8.951l-0.308-0.725
		c-8.65,3.496-5.898,1.168-11.885,2.64c-4.873,1.2-10.312,3.842-14.621,3.831c-5.473-0.016-8.119,0.83-14.047,2.356
		c-2.07,0.531-4.796,1.489-7.451,1.955c-4.17,0.731-25.695,1.483-32.951,10.237c-4.317,5.208-3.37,18.249-1.822,23.7
		c10.83,38.134,9.261,26.891,24.425,56.47c17.21,33.564,11.011,32.068,12.757,42.973c0.906,5.661,0.37,8.642,1.093,12.707
		c1.822,10.246,15.439,30.727,21.786,40.159l17.76,19.722c3.196,3.134,2.223,2.119,4.942,4.151c5.484,4.101,1.974,2.601,9.795,6.28
		l17.798,6.824l17.716-7.521l-1.231-3.257c6.635-6.022,8.842-15.326,5.012-25.323c-9.516-24.842-9.742-26.613-7.171-58.101
		c0.278-3.405-0.579-5.304-0.437-7.746l2.994-18.388c7.086-3.674,7.585-2.875,10.984,3.889c4.489,8.932,4.083,6.017,7.778,1.28
		c-3.845-10.269-13.938-18.054-4.15-17.805c7.095,0.179,7.489,8.101,28.401,7.821l2.764-6.596c0.321-0.238,0.247-0.527,0.329-0.803
		c-5.369-5.294-9.232-7.307-15.696-8.879l-12.198-4.045c-3.467-7.773-1.162-4.106-1.508-9.225c-0.185-2.745-0.892-4.929-1.832-6.769
		c7.235-14.27,33.558-36.282,45.367-45.066l113.761-70.933c9.138-5.372,20.72-12.002,28.634-17.52
		c10.138-7.067,36.736-18.246,58.328-34.109c5.018-3.688,5.816-6.626,11.275-10.677c3.958-2.936,10.696-6.189,15.003-9.187
		c21.844-15.213,39.73-20.67,61.608-30.782c27.399-12.667,22.988-32.444,31.855-60.548c6.345-20.12,19.113-47.376,28.1-65.805
		c7.455,6.127,23.935,40.88,28.452,51.618c24.447,58.13-20.426,82.167,15.964,212.81c11.916,42.787,26.565,81.675,36.973,125.561
		c4.463,18.823,9.311,22.563,9.279,39.66l-4.884,2.073c3.497,8.65,1.169,5.9,2.641,11.884c1.199,4.874,3.843,10.311,3.83,14.622
		c-0.015,5.473,0.831,8.118,2.357,14.046c0.531,2.071,1.489,4.797,1.955,7.451c0.73,4.17,1.481,25.695,10.237,32.952
		c5.207,4.316,18.249,3.371,23.701,1.822c38.132-10.831,26.89-9.262,56.469-24.426c33.566-17.208,32.069-11.01,42.975-12.756
		c5.661-0.905,8.641-0.37,12.706-1.092c10.247-1.822,30.727-15.439,40.159-21.786l19.724-17.761c3.133-3.195,2.118-2.221,4.15-4.942
		c4.101-5.484,2.602-1.972,6.279-9.795l6.824-17.798l-7.52-17.716l-3.259,1.231c-6.02-6.635-15.324-8.841-25.321-5.012
		c-24.843,9.515-26.615,9.742-58.102,7.17c-3.404-0.279-5.304,0.579-7.747,0.437l-18.387-2.994
		c-3.673-7.086-2.875-7.584,3.889-10.983c8.932-4.489,6.015-4.084,1.28-7.779c-10.269,3.847-18.054,13.937-17.805,4.151
		c0.18-7.094,8.102-7.489,7.823-28.401l-6.598-2.763c-0.237-0.321-0.525-0.247-0.802-0.33c-5.296,5.369-7.308,9.231-8.88,15.696
		l-4.044,12.197c-7.774,3.468-4.107,1.162-9.225,1.509c-4.855,0.328-7.962,2.285-10.497,4.282
		c-23.441-57.44-27.371-229.687-29.248-296.592c-0.584-20.857,1.216-47.704-1.322-67.335
		c-6.829-52.815-19.34-119.244-37.276-169.205c-6.122-17.062-10.282-35.553-17.093-51.199c-4.897-11.255-17.767-39.46-19.174-48.946
		c-10.416-70.192,3.789-102.786,2.963-131.732c-0.376-13.274-1.537-16.744,0.498-27.888c-0.112-0.181-0.14-0.306-0.14-0.517
		c-0.057-0.182-0.051-0.325-0.084-0.5c-0.078-0.157-0.132-0.473-0.162-0.651c-0.143-0.231-0.177-0.741-0.172-1.003
		c-0.029-0.1-0.034-0.219-0.034-0.335c-0.104-0.237-0.168-0.783-0.104-1.043c-0.044-0.114-0.087-0.149-0.109-0.289
		c-0.064-0.18-0.132-0.425-0.161-0.612c-0.091-0.259-0.161-0.656-0.052-0.925c-0.193-0.248-0.373-0.412-0.527-0.408
		C719.685,795.719,719.925,795.998,719.506,791.309z"/>
	<path fill-rule="evenodd" clip-rule="evenodd" fill="#fff" d="M720.354,797.458c-1.696-20.516-2.616-37.226-2.101-45.793
		l-20.294-30.179c-8.098-9.873-14.164-20.245-21.705-31.415l-62.56-92.871c-3.202-5.446-7.926-10.331-11.084-14.506l-31.761-48.8
		c-7.903-12.933-11.979-20.539-14.488-35.365c16.776-6.146,25.908-9.989,40.261-16.007c17.095-3.92,33.765-20.732,43.855-22.941
		c5.814,11.381,23.079,79.704,51.141,132.489c4.12,7.745,16.593,35.328,23.222,39.485c0.883-16.458,9.231-55.903,15.512-69.503
		c4.91-10.633,10.86-18.886,15.231-28.013c15.429-32.219,18.387-72.482-6.236-95.941l-44.706-40.66
		c-6.947-0.799-33.469-19.79-39.975-24.158c-13.326-8.948-26.043-13.965-39.101-21.947c-10.519-6.431-32.749-14.85-44.815-19.96
		c-28.998-12.275-35.781-6.929-48.635-10.303l-2.916-1.301c-9.255,8.707-9.088,2.679-17.499,17.69
		c-19.418,34.654-2.465,110.772,7.682,147.666c5.03,18.282,13.186,34.338,17.831,51.166c16.444,59.554,67.514,86.407,18.082,216.333
		c-2.266,5.957-4.904,12.182-7.761,18.508c0.517,0.448,0.977,0.961,1.367,1.525c0.404,0.404,0.82,0.802,1.176,1.25
		c1.423,0.687,2.613,1.779,3.423,3.125c1.16,0.532,2.171,1.347,2.994,2.318c0.605,0.513,1.188,1.139,1.635,1.791
		c0.165,0.178,0.321,0.361,0.467,0.549c0.234,0.149,0.461,0.31,0.679,0.481c1.428,0.687,2.624,1.782,3.437,3.133
		c1.021,0.469,1.928,1.143,2.667,1.971c0.427,0.289,0.825,0.618,1.189,0.982c0.403,0.278,0.78,0.593,1.125,0.938
		c0.472,0.326,0.908,0.701,1.3,1.117c0.359,0.246,0.696,0.521,1.009,0.82c1.404,0.434,2.645,1.24,3.608,2.302
		c0.227,0.206,0.443,0.425,0.645,0.655c1.203,0.531,2.27,1.22,3.153,2.208c0.163,0.111,0.322,0.227,0.477,0.349
		c2.497,0.276,4.817,1.706,6.143,4.018c1.391,0.24,2.921,0.946,4.029,1.827c0.662,0.365,1.266,0.82,1.798,1.348
		c0.835,0.228,1.678,0.639,2.447,1.053c0.626,0.204,1.272,0.511,1.847,0.837c0.346,0.151,0.68,0.325,0.998,0.521
		c1.582,0.203,3.022,0.862,4.182,1.841c0.291,0.193,0.568,0.403,0.831,0.631c0.182,0.09,0.351,0.189,0.536,0.273
		c0.862,0.184,1.675,0.506,2.412,0.942c0.193,0.06,0.383,0.128,0.571,0.202c1.965,0.087,3.747,0.873,5.105,2.116
		c0.761,0.089,1.489,0.285,2.171,0.57c0.765,0.195,1.434,0.35,2.163,0.69h0.912c1.793,0,3.45,0.582,4.792,1.569
		c0.629,0.08,1.234,0.232,1.809,0.448c0.422,0.124,0.901,0.282,1.308,0.446c1.212-0.083,2.439,0.067,3.58,0.494l0.06,0.018
		c0.544,0.108,1.068,0.27,1.567,0.481c0.221,0.03,0.439,0.068,0.654,0.115c1.282,0,2.447-0.065,3.707,0.266
		c0.831,0.116,1.621,0.357,2.351,0.704l-0.812-0.406h2.975c0.881,0,1.729,0.142,2.524,0.402c0.768,0.061,1.506,0.228,2.199,0.488
		c0.38,0.111,0.749,0.25,1.104,0.413l0.003-0.002l-1.098-0.549h2.741c0.571-0.125,1.154-0.188,1.737-0.188v0h2.068
		c0.597,0,1.18,0.065,1.741,0.188c0.604,0.004,1.193,0.073,1.758,0.202c0.333,0.02,0.66,0.06,0.981,0.119
		c0.716-0.212,1.477-0.322,2.286-0.322h2.394c0.561-0.123,1.143-0.188,1.741-0.188h3.947c0.73-0.23,1.487-0.355,2.246-0.373
		c0.774-0.246,1.598-0.378,2.453-0.378h0.707c0.397-0.087,0.799-0.143,1.202-0.17c1.117-0.259,2.191-0.206,3.324-0.206
		c0.368-0.171,0.746-0.313,1.131-0.425c0.418-0.156,0.847-0.277,1.281-0.362c0.768-0.292,1.57-0.462,2.379-0.512
		c1.211-0.278,2.461-0.204,3.694-0.204c0.336-0.106,0.682-0.192,1.035-0.253c0.446-0.227,0.909-0.409,1.382-0.547
		c0.369-0.138,0.786-0.277,1.164-0.386c1.357-1.025,3.046-1.633,4.878-1.633l1.412-0.031c0.743-0.224,1.531-0.345,2.347-0.345h0.704
		l0.364-0.071c0.594-0.26,1.213-0.446,1.843-0.557c0.825-0.42,1.548-0.592,2.424-0.815c0.452-0.189,0.925-0.339,1.414-0.443
		c0.874-0.461,1.843-0.768,2.869-0.882c0.156-0.053,0.314-0.101,0.474-0.144c0.283-0.194,0.579-0.37,0.887-0.527
		c0.759-0.528,1.613-0.93,2.53-1.174c1.406-1.213,3.234-1.951,5.233-1.964c0.427-0.094,0.867-0.154,1.316-0.177
		c0.194-0.102,0.367-0.23,0.554-0.344c0.74-0.539,2.114-1.235,2.994-1.523c0.251-0.135,0.521-0.27,0.779-0.391
		c0.557-0.297,1.131-0.568,1.734-0.759c1.26-0.901,2.72-1.397,4.201-1.489c0.248-0.164,0.505-0.314,0.771-0.45
		c0.485-0.337,1.009-0.623,1.563-0.849c0.336-0.244,0.692-0.462,1.064-0.653C717.736,798.312,718.838,797.71,720.354,797.458z"/>
	
		<path fill-rule="evenodd" clip-rule="evenodd" fill="#fff" stroke="#fff" stroke-width="0.5669" stroke-miterlimit="22.9256" d="
		M720.002,793.11c-69.941,36.89-130.218,28.339-180.831-25.651c-1.309,3.366-2.689,6.703-4.138,10.01
		c53.022,50.37,115.125,59.034,186.308,25.992C720.39,799.884,719.943,796.433,720.002,793.11z"/>
</g>
</svg>
